<svg width="359" height="25" viewBox="0 0 359 25" fill="none" xmlns="http://www.w3.org/2000/svg">
<path d="M18.7531 4.90625H2.08643L8.75309 12.7896V18.2396L12.0864 19.9062V12.7896L18.7531 4.90625Z" stroke="#030711" stroke-width="1.66667" stroke-linecap="round" stroke-linejoin="round"/>
<path d="M35.8496 9.78125H31.6621V13.1484H35.5215V14.7188H31.6621V19.4062H29.8027V8.20312H35.8496V9.78125ZM38.5605 9.72656C38.2637 9.72656 38.0085 9.63021 37.7949 9.4375C37.5866 9.24479 37.4824 9 37.4824 8.70312C37.4824 8.40625 37.5866 8.15885 37.7949 7.96094C38.0085 7.76302 38.2637 7.66406 38.5605 7.66406C38.8678 7.66406 39.1283 7.76302 39.3418 7.96094C39.5553 8.15885 39.6621 8.40625 39.6621 8.70312C39.6621 8.98438 39.5553 9.22656 39.3418 9.42969C39.1283 9.6276 38.8678 9.72656 38.5605 9.72656ZM39.459 19.4062H37.6465V11.4062H39.459V19.4062ZM43.6543 19.4062H41.834V7.5625H43.6543V19.4062ZM50.2402 19.3203C49.8861 19.4974 49.4199 19.5859 48.8418 19.5859C47.2897 19.5859 46.5137 18.8411 46.5137 17.3516V12.8281H45.1777V11.4062H46.5137V9.55469L48.3262 9.03906V11.4062H50.2402V12.8281H48.3262V16.8281C48.3262 17.3021 48.4121 17.6406 48.584 17.8438C48.7559 18.0469 49.0423 18.1484 49.4434 18.1484C49.7507 18.1484 50.0163 18.0599 50.2402 17.8828V19.3203ZM58.4824 15.8984H53.0293C53.0501 16.638 53.2767 17.2083 53.709 17.6094C54.1465 18.0104 54.7454 18.2109 55.5059 18.2109C56.36 18.2109 57.1439 17.9557 57.8574 17.4453V18.9062C57.1283 19.3646 56.1647 19.5938 54.9668 19.5938C53.7897 19.5938 52.8652 19.2318 52.1934 18.5078C51.5267 17.7786 51.1934 16.7552 51.1934 15.4375C51.1934 14.1927 51.5605 13.1797 52.2949 12.3984C53.0345 11.612 53.9512 11.2188 55.0449 11.2188C56.1387 11.2188 56.985 11.5703 57.584 12.2734C58.1829 12.9766 58.4824 13.9531 58.4824 15.2031V15.8984ZM56.7324 14.6172C56.7272 13.9661 56.5736 13.4609 56.2715 13.1016C55.9694 12.737 55.5527 12.5547 55.0215 12.5547C54.5007 12.5547 54.0579 12.7448 53.6934 13.125C53.334 13.5052 53.1126 14.0026 53.0293 14.6172H56.7324ZM64.8496 13.1328C64.6309 12.9609 64.3158 12.875 63.9043 12.875C63.3678 12.875 62.9199 13.1172 62.5605 13.6016C62.2012 14.0859 62.0215 14.7448 62.0215 15.5781V19.4062H60.209V11.4062H62.0215V13.0547H62.0527C62.2298 12.4922 62.5007 12.0547 62.8652 11.7422C63.235 11.4245 63.6465 11.2656 64.0996 11.2656C64.4277 11.2656 64.6777 11.3151 64.8496 11.4141V13.1328ZM65.7402 19.1562V17.4766C66.4173 17.9922 67.1647 18.25 67.9824 18.25C69.0762 18.25 69.623 17.9271 69.623 17.2812C69.623 17.099 69.5762 16.9453 69.4824 16.8203C69.3887 16.6901 69.2611 16.5755 69.0996 16.4766C68.9434 16.3776 68.7559 16.2891 68.5371 16.2109C68.3236 16.1328 68.084 16.0443 67.8184 15.9453C67.4902 15.8151 67.1934 15.6771 66.9277 15.5312C66.6673 15.3854 66.4486 15.2214 66.2715 15.0391C66.0996 14.8516 65.9694 14.6406 65.8809 14.4062C65.7923 14.1719 65.748 13.8984 65.748 13.5859C65.748 13.2005 65.8392 12.862 66.0215 12.5703C66.2038 12.2734 66.4486 12.026 66.7559 11.8281C67.0632 11.625 67.4121 11.474 67.8027 11.375C68.1934 11.2708 68.597 11.2188 69.0137 11.2188C69.7533 11.2188 70.4147 11.3307 70.998 11.5547V13.1406C70.4355 12.7552 69.7897 12.5625 69.0605 12.5625C68.8314 12.5625 68.623 12.5859 68.4355 12.6328C68.2533 12.6797 68.097 12.7448 67.9668 12.8281C67.8366 12.9115 67.735 13.013 67.6621 13.1328C67.5892 13.2474 67.5527 13.375 67.5527 13.5156C67.5527 13.6875 67.5892 13.8333 67.6621 13.9531C67.735 14.0729 67.8418 14.1797 67.9824 14.2734C68.1283 14.362 68.3001 14.4453 68.498 14.5234C68.7012 14.5964 68.9329 14.6771 69.1934 14.7656C69.5371 14.9062 69.8444 15.0495 70.1152 15.1953C70.3913 15.3411 70.6257 15.5078 70.8184 15.6953C71.0111 15.8776 71.1595 16.0911 71.2637 16.3359C71.3678 16.5755 71.4199 16.862 71.4199 17.1953C71.4199 17.6016 71.3262 17.9557 71.1387 18.2578C70.9512 18.5599 70.7012 18.8099 70.3887 19.0078C70.0762 19.2057 69.7142 19.3516 69.3027 19.4453C68.8965 19.5443 68.4668 19.5938 68.0137 19.5938C67.1387 19.5938 66.3809 19.4479 65.7402 19.1562Z" fill="#030711"/>
</svg>
