<svg width="17" height="17" viewBox="0 0 17 17" fill="none" xmlns="http://www.w3.org/2000/svg">
<path d="M4.41992 2.24219L2.41992 4.90885V14.2422C2.41992 14.5958 2.5604 14.9349 2.81045 15.185C3.06049 15.435 3.39963 15.5755 3.75326 15.5755H13.0866C13.4402 15.5755 13.7793 15.435 14.0294 15.185C14.2794 14.9349 14.4199 14.5958 14.4199 14.2422V4.90885L12.4199 2.24219H4.41992Z" stroke="#F9FAFB" stroke-width="1.33333" stroke-linecap="round" stroke-linejoin="round"/>
<path d="M2.41992 4.90625H14.4199" stroke="#F9FAFB" stroke-width="1.33333" stroke-linecap="round" stroke-linejoin="round"/>
<path d="M11.0868 7.57031C11.0868 8.27756 10.8058 8.95583 10.3057 9.45593C9.80561 9.95603 9.12733 10.237 8.42008 10.237C7.71284 10.237 7.03456 9.95603 6.53447 9.45593C6.03437 8.95583 5.75342 8.27756 5.75342 7.57031" stroke="#F9FAFB" stroke-width="1.33333" stroke-linecap="round" stroke-linejoin="round"/>
</svg>
