<svg width="17" height="16" viewBox="0 0 17 16" fill="none" xmlns="http://www.w3.org/2000/svg">
<path d="M4.96973 1.33594L2.96973 4.0026V13.3359C2.96973 13.6896 3.1102 14.0287 3.36025 14.2787C3.6103 14.5288 3.94944 14.6693 4.30306 14.6693H13.6364C13.99 14.6693 14.3292 14.5288 14.5792 14.2787C14.8293 14.0287 14.9697 13.6896 14.9697 13.3359V4.0026L12.9697 1.33594H4.96973Z" stroke="#030711" stroke-width="1.33333" stroke-linecap="round" stroke-linejoin="round"/>
<path d="M2.96973 4H14.9697" stroke="#030711" stroke-width="1.33333" stroke-linecap="round" stroke-linejoin="round"/>
<path d="M11.6361 6.66406C11.6361 7.37131 11.3551 8.04958 10.855 8.54968C10.3549 9.04978 9.67665 9.33073 8.9694 9.33073C8.26216 9.33073 7.58388 9.04978 7.08378 8.54968C6.58369 8.04958 6.30273 7.37131 6.30273 6.66406" stroke="#030711" stroke-width="1.33333" stroke-linecap="round" stroke-linejoin="round"/>
</svg>
