<svg width="33" height="32" viewBox="0 0 33 32" fill="none" xmlns="http://www.w3.org/2000/svg">
<path d="M27.3314 17.3313C27.3314 23.998 22.6647 27.3313 17.118 29.2647C16.8276 29.3631 16.5121 29.3584 16.2247 29.2513C10.6647 27.3313 5.99805 23.998 5.99805 17.3313V7.998C5.99805 7.64437 6.13852 7.30524 6.38857 7.05519C6.63862 6.80514 6.97776 6.66466 7.33138 6.66466C9.99805 6.66466 13.3314 5.06466 15.6514 3.038C15.9339 2.79666 16.2932 2.66406 16.6647 2.66406C17.0362 2.66406 17.3956 2.79666 17.678 3.038C20.0114 5.078 23.3314 6.66466 25.998 6.66466C26.3517 6.66466 26.6908 6.80514 26.9409 7.05519C27.1909 7.30524 27.3314 7.64437 27.3314 7.998V17.3313Z" stroke="#030711" stroke-width="2.66667" stroke-linecap="round" stroke-linejoin="round"/>
</svg>
