<svg width="33" height="32" viewBox="0 0 33 32" fill="none" xmlns="http://www.w3.org/2000/svg">
<path d="M19.002 24.0026V8.0026C19.002 7.29536 18.721 6.61708 18.2209 6.11699C17.7208 5.61689 17.0425 5.33594 16.3353 5.33594H5.66862C4.96138 5.33594 4.2831 5.61689 3.783 6.11699C3.2829 6.61708 3.00195 7.29536 3.00195 8.0026V22.6693C3.00195 23.0229 3.14243 23.362 3.39248 23.6121C3.64253 23.8621 3.98166 24.0026 4.33529 24.0026H7.00195" stroke="#030711" stroke-width="2.66667" stroke-linecap="round" stroke-linejoin="round"/>
<path d="M20.335 24H12.335" stroke="#030711" stroke-width="2.66667" stroke-linecap="round" stroke-linejoin="round"/>
<path d="M25.6686 23.9974H28.3353C28.6889 23.9974 29.028 23.8569 29.2781 23.6069C29.5281 23.3568 29.6686 23.0177 29.6686 22.6641V17.7974C29.6681 17.4948 29.5646 17.2014 29.3753 16.9654L24.7353 11.1654C24.6106 11.0092 24.4524 10.8831 24.2724 10.7963C24.0923 10.7095 23.8951 10.6643 23.6953 10.6641H19.002" stroke="#030711" stroke-width="2.66667" stroke-linecap="round" stroke-linejoin="round"/>
<path d="M23.0016 26.6693C24.4744 26.6693 25.6683 25.4754 25.6683 24.0026C25.6683 22.5298 24.4744 21.3359 23.0016 21.3359C21.5289 21.3359 20.335 22.5298 20.335 24.0026C20.335 25.4754 21.5289 26.6693 23.0016 26.6693Z" stroke="#030711" stroke-width="2.66667" stroke-linecap="round" stroke-linejoin="round"/>
<path d="M9.66862 26.6693C11.1414 26.6693 12.3353 25.4754 12.3353 24.0026C12.3353 22.5298 11.1414 21.3359 9.66862 21.3359C8.19586 21.3359 7.00195 22.5298 7.00195 24.0026C7.00195 25.4754 8.19586 26.6693 9.66862 26.6693Z" stroke="#030711" stroke-width="2.66667" stroke-linecap="round" stroke-linejoin="round"/>
</svg>
