<svg width="20" height="21" viewBox="0 0 20 21" fill="none" xmlns="http://www.w3.org/2000/svg">
<path d="M9.60404 2.65981C9.64056 2.58602 9.69697 2.52392 9.76692 2.48049C9.83686 2.43707 9.91755 2.41406 9.99987 2.41406C10.0822 2.41406 10.1629 2.43707 10.2328 2.48049C10.3028 2.52392 10.3592 2.58602 10.3957 2.65981L12.3207 6.55897C12.4475 6.81561 12.6347 7.03765 12.8662 7.20602C13.0977 7.37439 13.3666 7.48407 13.6499 7.52564L17.9549 8.15564C18.0364 8.16746 18.1131 8.20187 18.1761 8.25497C18.2391 8.30808 18.2861 8.37776 18.3116 8.45615C18.337 8.53453 18.3401 8.61848 18.3204 8.6985C18.3006 8.77853 18.2589 8.85143 18.1999 8.90897L15.0865 11.9406C14.8812 12.1407 14.7276 12.3877 14.6389 12.6603C14.5502 12.933 14.5291 13.223 14.5774 13.5056L15.3124 17.789C15.3268 17.8705 15.318 17.9544 15.287 18.0312C15.2559 18.108 15.204 18.1745 15.137 18.2231C15.07 18.2718 14.9907 18.3006 14.9081 18.3064C14.8255 18.3121 14.743 18.2945 14.6699 18.2556L10.8215 16.2323C10.568 16.0992 10.2859 16.0296 9.99946 16.0296C9.71306 16.0296 9.43094 16.0992 9.17737 16.2323L5.32987 18.2556C5.25681 18.2943 5.17437 18.3117 5.09191 18.3059C5.00946 18.3 4.9303 18.2711 4.86345 18.2225C4.7966 18.1739 4.74473 18.1075 4.71375 18.0308C4.68277 17.9542 4.67392 17.8704 4.68821 17.789L5.42237 13.5065C5.47087 13.2238 5.44986 12.9335 5.36115 12.6607C5.27245 12.3879 5.11871 12.1408 4.91321 11.9406L1.79987 8.90981C1.74037 8.85233 1.6982 8.7793 1.67817 8.69904C1.65815 8.61877 1.66107 8.53449 1.6866 8.4558C1.71214 8.37711 1.75926 8.30717 1.8226 8.25396C1.88594 8.20074 1.96296 8.16639 2.04487 8.15481L6.34904 7.52564C6.63259 7.48439 6.90186 7.37485 7.13369 7.20646C7.36552 7.03807 7.55296 6.81587 7.67987 6.55897L9.60404 2.65981Z" stroke="#D1D5DB" stroke-width="1.66667" stroke-linecap="round" stroke-linejoin="round"/>
</svg>
