<svg width="16" height="17" viewBox="0 0 16 17" fill="none" xmlns="http://www.w3.org/2000/svg">
<path d="M12 6.08594C13.1046 6.08594 14 5.19051 14 4.08594C14 2.98137 13.1046 2.08594 12 2.08594C10.8954 2.08594 10 2.98137 10 4.08594C10 5.19051 10.8954 6.08594 12 6.08594Z" stroke="#030711" stroke-width="1.33333" stroke-linecap="round" stroke-linejoin="round"/>
<path d="M4 10.75C5.10457 10.75 6 9.85457 6 8.75C6 7.64543 5.10457 6.75 4 6.75C2.89543 6.75 2 7.64543 2 8.75C2 9.85457 2.89543 10.75 4 10.75Z" stroke="#030711" stroke-width="1.33333" stroke-linecap="round" stroke-linejoin="round"/>
<path d="M12 15.4141C13.1046 15.4141 14 14.5186 14 13.4141C14 12.3095 13.1046 11.4141 12 11.4141C10.8954 11.4141 10 12.3095 10 13.4141C10 14.5186 10.8954 15.4141 12 15.4141Z" stroke="#030711" stroke-width="1.33333" stroke-linecap="round" stroke-linejoin="round"/>
<path d="M5.72656 9.75781L10.2799 12.4111" stroke="#030711" stroke-width="1.33333" stroke-linecap="round" stroke-linejoin="round"/>
<path d="M10.2732 5.09375L5.72656 7.74708" stroke="#030711" stroke-width="1.33333" stroke-linecap="round" stroke-linejoin="round"/>
</svg>
